<mxfile host="app.diagrams.net" agent="Mozilla/5.0 (X11; Linux x86_64; rv:136.0) Gecko/20100101 Firefox/136.0" version="26.1.2">
  <diagram name="Page-1" id="lgtjIXWAE3Ng81CHt6eq">
    <mxGraphModel dx="1059" dy="1676" grid="1" gridSize="10" guides="1" tooltips="1" connect="1" arrows="1" fold="1" page="1" pageScale="1" pageWidth="850" pageHeight="1100" math="0" shadow="0">
      <root>
        <mxCell id="0" />
        <mxCell id="1" parent="0" />
        <mxCell id="DxNxQ3HFOBU-DI73ntQy-1" value="&lt;h1&gt;CharGL architecture&lt;/h1&gt;" style="text;html=1;align=center;verticalAlign=middle;whiteSpace=wrap;rounded=0;" parent="1" vertex="1">
          <mxGeometry x="285" y="-1090" width="280" height="50" as="geometry" />
        </mxCell>
        <mxCell id="HrfMfGlhkE7iZRvC2ZaJ-3" style="edgeStyle=orthogonalEdgeStyle;rounded=0;orthogonalLoop=1;jettySize=auto;html=1;exitX=1;exitY=0.5;exitDx=0;exitDy=0;entryX=0;entryY=0.5;entryDx=0;entryDy=0;" parent="1" source="DxNxQ3HFOBU-DI73ntQy-2" target="HrfMfGlhkE7iZRvC2ZaJ-2" edge="1">
          <mxGeometry relative="1" as="geometry" />
        </mxCell>
        <mxCell id="DxNxQ3HFOBU-DI73ntQy-2" value="&lt;div style=&quot;padding-right: 10px; padding-left: 0px;&quot; align=&quot;left&quot;&gt;Custom output function&lt;/div&gt;" style="triangle;whiteSpace=wrap;html=1;fillColor=#ffe6cc;strokeColor=#d79b00;fontSize=12;align=left;" parent="1" vertex="1">
          <mxGeometry x="1517.52" y="-980" width="100" height="70" as="geometry" />
        </mxCell>
        <mxCell id="HrfMfGlhkE7iZRvC2ZaJ-2" value="Console / Terminal" style="ellipse;whiteSpace=wrap;html=1;fillColor=#f8cecc;strokeColor=#b85450;" parent="1" vertex="1">
          <mxGeometry x="1637.52" y="-965" width="70" height="40" as="geometry" />
        </mxCell>
        <mxCell id="HrfMfGlhkE7iZRvC2ZaJ-52" value="&lt;div align=&quot;center&quot;&gt;&lt;b&gt;CglCamera2d&lt;/b&gt;&lt;/div&gt;&lt;hr size=&quot;1&quot; style=&quot;border-style:solid;&quot;&gt;&lt;p style=&quot;margin:0px;margin-left:8px;&quot;&gt;+ view: CglRectangle&lt;br&gt;&lt;/p&gt;&lt;p style=&quot;margin:0px;margin-left:8px;&quot;&gt;+ position: CglVector2u16&lt;/p&gt;&lt;p style=&quot;margin:0px;margin-left:8px;&quot;&gt;+ zoom: float&lt;/p&gt;&lt;p style=&quot;margin:0px;margin-left:8px;&quot;&gt;+ rotation: float&lt;/p&gt;" style="align=left;overflow=fill;html=1;dropTarget=0;whiteSpace=wrap;fillColor=#dae8fc;strokeColor=#6c8ebf;" parent="1" vertex="1">
          <mxGeometry x="10" y="-330" width="180" height="100" as="geometry" />
        </mxCell>
        <mxCell id="HrfMfGlhkE7iZRvC2ZaJ-53" value="" style="shape=component;jettyWidth=8;jettyHeight=4;" parent="HrfMfGlhkE7iZRvC2ZaJ-52" vertex="1">
          <mxGeometry x="1" width="20" height="20" relative="1" as="geometry">
            <mxPoint x="-25" as="offset" />
          </mxGeometry>
        </mxCell>
        <mxCell id="HrfMfGlhkE7iZRvC2ZaJ-87" style="edgeStyle=orthogonalEdgeStyle;rounded=0;orthogonalLoop=1;jettySize=auto;html=1;entryX=0;entryY=0.25;entryDx=0;entryDy=0;" parent="1" source="HrfMfGlhkE7iZRvC2ZaJ-58" target="HrfMfGlhkE7iZRvC2ZaJ-86" edge="1">
          <mxGeometry relative="1" as="geometry">
            <Array as="points">
              <mxPoint x="1165" y="-1005" />
              <mxPoint x="1165" y="-980" />
            </Array>
          </mxGeometry>
        </mxCell>
        <mxCell id="HrfMfGlhkE7iZRvC2ZaJ-58" value="CglVertices2dTriangle" style="triangle;whiteSpace=wrap;html=1;fillColor=#ffe6cc;strokeColor=#d79b00;fontSize=12;align=left;" parent="1" vertex="1">
          <mxGeometry x="1024" y="-1040" width="128" height="70" as="geometry" />
        </mxCell>
        <mxCell id="HrfMfGlhkE7iZRvC2ZaJ-92" style="edgeStyle=orthogonalEdgeStyle;rounded=0;orthogonalLoop=1;jettySize=auto;html=1;entryX=0;entryY=0.5;entryDx=0;entryDy=0;" parent="1" source="HrfMfGlhkE7iZRvC2ZaJ-62" target="HrfMfGlhkE7iZRvC2ZaJ-58" edge="1">
          <mxGeometry relative="1" as="geometry" />
        </mxCell>
        <mxCell id="HrfMfGlhkE7iZRvC2ZaJ-62" value="points: CglVector2u16" style="swimlane;fontStyle=0;childLayout=stackLayout;horizontal=1;startSize=30;horizontalStack=0;resizeParent=1;resizeParentMax=0;resizeLast=0;collapsible=1;marginBottom=0;whiteSpace=wrap;html=1;fillColor=#d5e8d4;strokeColor=#82b366;" parent="1" vertex="1">
          <mxGeometry x="905" y="-1050" width="75" height="90" as="geometry" />
        </mxCell>
        <mxCell id="HrfMfGlhkE7iZRvC2ZaJ-63" value="0, 0" style="text;strokeColor=none;fillColor=none;align=left;verticalAlign=middle;spacingLeft=4;spacingRight=4;overflow=hidden;points=[[0,0.5],[1,0.5]];portConstraint=eastwest;rotatable=0;whiteSpace=wrap;html=1;" parent="HrfMfGlhkE7iZRvC2ZaJ-62" vertex="1">
          <mxGeometry y="30" width="75" height="20" as="geometry" />
        </mxCell>
        <mxCell id="HrfMfGlhkE7iZRvC2ZaJ-64" value="0, 10" style="text;strokeColor=none;fillColor=none;align=left;verticalAlign=middle;spacingLeft=4;spacingRight=4;overflow=hidden;points=[[0,0.5],[1,0.5]];portConstraint=eastwest;rotatable=0;whiteSpace=wrap;html=1;" parent="HrfMfGlhkE7iZRvC2ZaJ-62" vertex="1">
          <mxGeometry y="50" width="75" height="20" as="geometry" />
        </mxCell>
        <mxCell id="HrfMfGlhkE7iZRvC2ZaJ-65" value="10, 0" style="text;strokeColor=none;fillColor=none;align=left;verticalAlign=middle;spacingLeft=4;spacingRight=4;overflow=hidden;points=[[0,0.5],[1,0.5]];portConstraint=eastwest;rotatable=0;whiteSpace=wrap;html=1;" parent="HrfMfGlhkE7iZRvC2ZaJ-62" vertex="1">
          <mxGeometry y="70" width="75" height="20" as="geometry" />
        </mxCell>
        <mxCell id="HrfMfGlhkE7iZRvC2ZaJ-93" style="edgeStyle=orthogonalEdgeStyle;rounded=0;orthogonalLoop=1;jettySize=auto;html=1;entryX=0;entryY=0.75;entryDx=0;entryDy=0;" parent="1" source="HrfMfGlhkE7iZRvC2ZaJ-75" target="HrfMfGlhkE7iZRvC2ZaJ-58" edge="1">
          <mxGeometry relative="1" as="geometry" />
        </mxCell>
        <mxCell id="HrfMfGlhkE7iZRvC2ZaJ-75" value="position 0: CglVector2u16" style="rounded=0;whiteSpace=wrap;html=1;fillColor=#d5e8d4;strokeColor=#82b366;" parent="1" vertex="1">
          <mxGeometry x="905" y="-950" width="75" height="35" as="geometry" />
        </mxCell>
        <mxCell id="HrfMfGlhkE7iZRvC2ZaJ-82" value="&lt;div align=&quot;center&quot;&gt;&lt;b&gt;CglVertices2d&lt;/b&gt;&lt;/div&gt;&lt;hr size=&quot;1&quot; style=&quot;border-style:solid;&quot;&gt;&lt;p style=&quot;margin:0px;margin-left:8px;&quot;&gt;+ vertices: CglVector2u16*&lt;/p&gt;&lt;p style=&quot;margin:0px;margin-left:8px;&quot;&gt;+ joinType: CglVerticesJoinType&lt;/p&gt;" style="align=left;overflow=fill;html=1;dropTarget=0;whiteSpace=wrap;fillColor=#dae8fc;strokeColor=#6c8ebf;" parent="1" vertex="1">
          <mxGeometry x="10.52" y="-510" width="180" height="70" as="geometry" />
        </mxCell>
        <mxCell id="HrfMfGlhkE7iZRvC2ZaJ-83" value="" style="shape=component;jettyWidth=8;jettyHeight=4;" parent="HrfMfGlhkE7iZRvC2ZaJ-82" vertex="1">
          <mxGeometry x="1" width="20" height="20" relative="1" as="geometry">
            <mxPoint x="-25" as="offset" />
          </mxGeometry>
        </mxCell>
        <mxCell id="HrfMfGlhkE7iZRvC2ZaJ-84" value="CglVertices2dFree" style="triangle;whiteSpace=wrap;html=1;fillColor=#ffe6cc;strokeColor=#d79b00;fontSize=12;align=left;" parent="1" vertex="1">
          <mxGeometry x="210.52" y="-510" width="112" height="40" as="geometry" />
        </mxCell>
        <mxCell id="HrfMfGlhkE7iZRvC2ZaJ-121" style="edgeStyle=orthogonalEdgeStyle;rounded=0;orthogonalLoop=1;jettySize=auto;html=1;entryX=0;entryY=0.25;entryDx=0;entryDy=0;" parent="1" source="HrfMfGlhkE7iZRvC2ZaJ-86" target="HrfMfGlhkE7iZRvC2ZaJ-120" edge="1">
          <mxGeometry relative="1" as="geometry" />
        </mxCell>
        <mxCell id="HrfMfGlhkE7iZRvC2ZaJ-86" value="CglObjectCreate" style="triangle;whiteSpace=wrap;html=1;fillColor=#ffe6cc;strokeColor=#d79b00;fontSize=12;align=left;" parent="1" vertex="1">
          <mxGeometry x="1245" y="-990" width="110" height="40" as="geometry" />
        </mxCell>
        <mxCell id="HrfMfGlhkE7iZRvC2ZaJ-91" style="edgeStyle=orthogonalEdgeStyle;rounded=0;orthogonalLoop=1;jettySize=auto;html=1;exitX=1;exitY=0.5;exitDx=0;exitDy=0;entryX=0;entryY=0.25;entryDx=0;entryDy=0;" parent="1" source="HrfMfGlhkE7iZRvC2ZaJ-88" target="HrfMfGlhkE7iZRvC2ZaJ-58" edge="1">
          <mxGeometry relative="1" as="geometry">
            <Array as="points">
              <mxPoint x="1004" y="-1075" />
              <mxPoint x="1004" y="-1022" />
            </Array>
          </mxGeometry>
        </mxCell>
        <mxCell id="HrfMfGlhkE7iZRvC2ZaJ-94" style="edgeStyle=orthogonalEdgeStyle;rounded=0;orthogonalLoop=1;jettySize=auto;html=1;entryX=0;entryY=0.25;entryDx=0;entryDy=0;dashed=1;dashPattern=8 8;" parent="1" source="HrfMfGlhkE7iZRvC2ZaJ-88" target="HrfMfGlhkE7iZRvC2ZaJ-86" edge="1">
          <mxGeometry relative="1" as="geometry">
            <Array as="points">
              <mxPoint x="1165" y="-1075" />
              <mxPoint x="1165" y="-980" />
            </Array>
          </mxGeometry>
        </mxCell>
        <mxCell id="HrfMfGlhkE7iZRvC2ZaJ-88" value="triangleVertices: CglVertices2d" style="shape=hexagon;perimeter=hexagonPerimeter2;whiteSpace=wrap;html=1;fixedSize=1;fillColor=#dae8fc;strokeColor=#6c8ebf;" parent="1" vertex="1">
          <mxGeometry x="890" y="-1090" width="105" height="30" as="geometry" />
        </mxCell>
        <mxCell id="HrfMfGlhkE7iZRvC2ZaJ-99" style="edgeStyle=orthogonalEdgeStyle;rounded=0;orthogonalLoop=1;jettySize=auto;html=1;entryX=0;entryY=0.75;entryDx=0;entryDy=0;" parent="1" source="HrfMfGlhkE7iZRvC2ZaJ-95" target="HrfMfGlhkE7iZRvC2ZaJ-86" edge="1">
          <mxGeometry relative="1" as="geometry" />
        </mxCell>
        <mxCell id="HrfMfGlhkE7iZRvC2ZaJ-95" value="fColor 255, 255, 255: CglColor" style="rounded=0;whiteSpace=wrap;html=1;fillColor=#d5e8d4;strokeColor=#82b366;" parent="1" vertex="1">
          <mxGeometry x="1035" y="-950" width="110" height="30" as="geometry" />
        </mxCell>
        <mxCell id="HrfMfGlhkE7iZRvC2ZaJ-100" style="edgeStyle=orthogonalEdgeStyle;rounded=0;orthogonalLoop=1;jettySize=auto;html=1;entryX=0;entryY=0.75;entryDx=0;entryDy=0;" parent="1" source="HrfMfGlhkE7iZRvC2ZaJ-96" target="HrfMfGlhkE7iZRvC2ZaJ-86" edge="1">
          <mxGeometry relative="1" as="geometry">
            <Array as="points">
              <mxPoint x="1165" y="-895" />
              <mxPoint x="1165" y="-960" />
            </Array>
          </mxGeometry>
        </mxCell>
        <mxCell id="HrfMfGlhkE7iZRvC2ZaJ-96" value="gColor 0, 0, 0: CglColor" style="rounded=0;whiteSpace=wrap;html=1;fillColor=#d5e8d4;strokeColor=#82b366;" parent="1" vertex="1">
          <mxGeometry x="1035" y="-910" width="110" height="30" as="geometry" />
        </mxCell>
        <mxCell id="HrfMfGlhkE7iZRvC2ZaJ-98" style="edgeStyle=orthogonalEdgeStyle;rounded=0;orthogonalLoop=1;jettySize=auto;html=1;entryX=0;entryY=0.5;entryDx=0;entryDy=0;" parent="1" source="HrfMfGlhkE7iZRvC2ZaJ-97" target="HrfMfGlhkE7iZRvC2ZaJ-86" edge="1">
          <mxGeometry relative="1" as="geometry" />
        </mxCell>
        <mxCell id="HrfMfGlhkE7iZRvC2ZaJ-97" value="brush &#39;#&#39;: char" style="rounded=0;whiteSpace=wrap;html=1;fillColor=#d5e8d4;strokeColor=#82b366;" parent="1" vertex="1">
          <mxGeometry x="1073" y="-980" width="70" height="20" as="geometry" />
        </mxCell>
        <mxCell id="HrfMfGlhkE7iZRvC2ZaJ-102" style="edgeStyle=orthogonalEdgeStyle;rounded=0;orthogonalLoop=1;jettySize=auto;html=1;entryX=0;entryY=0.25;entryDx=0;entryDy=0;" parent="1" source="HrfMfGlhkE7iZRvC2ZaJ-101" target="HrfMfGlhkE7iZRvC2ZaJ-86" edge="1">
          <mxGeometry relative="1" as="geometry" />
        </mxCell>
        <mxCell id="HrfMfGlhkE7iZRvC2ZaJ-127" style="edgeStyle=orthogonalEdgeStyle;rounded=0;orthogonalLoop=1;jettySize=auto;html=1;entryX=0;entryY=0.25;entryDx=0;entryDy=0;dashed=1;dashPattern=8 8;curved=0;strokeWidth=1;strokeColor=default;align=center;verticalAlign=middle;fontFamily=Helvetica;fontSize=11;fontColor=default;labelBackgroundColor=default;endArrow=classic;" parent="1" source="HrfMfGlhkE7iZRvC2ZaJ-101" target="HrfMfGlhkE7iZRvC2ZaJ-120" edge="1">
          <mxGeometry relative="1" as="geometry">
            <Array as="points">
              <mxPoint x="1367.52" y="-1025" />
              <mxPoint x="1367.52" y="-970" />
            </Array>
          </mxGeometry>
        </mxCell>
        <mxCell id="HrfMfGlhkE7iZRvC2ZaJ-101" value="&lt;div&gt;triangle: CglObject&lt;/div&gt;" style="shape=hexagon;perimeter=hexagonPerimeter2;whiteSpace=wrap;html=1;fixedSize=1;fillColor=#dae8fc;strokeColor=#6c8ebf;" parent="1" vertex="1">
          <mxGeometry x="1175" y="-1040" width="83" height="30" as="geometry" />
        </mxCell>
        <mxCell id="HrfMfGlhkE7iZRvC2ZaJ-106" value="sizeof(size_t) + 1 byts" style="rounded=0;whiteSpace=wrap;html=1;fillColor=#e1d5e7;strokeColor=#9673a6;" parent="1" vertex="1">
          <mxGeometry x="210.52" y="-460" width="110" height="20" as="geometry" />
        </mxCell>
        <mxCell id="HrfMfGlhkE7iZRvC2ZaJ-109" value="2 * sizeof(float) + 12 byts" style="rounded=0;whiteSpace=wrap;html=1;fillColor=#e1d5e7;strokeColor=#9673a6;" parent="1" vertex="1">
          <mxGeometry x="210.52" y="-330" width="130" height="20" as="geometry" />
        </mxCell>
        <mxCell id="HrfMfGlhkE7iZRvC2ZaJ-115" value="&lt;div align=&quot;center&quot;&gt;&lt;b&gt;CglCanvas&lt;/b&gt;&lt;/div&gt;&lt;hr size=&quot;1&quot; style=&quot;border-style:solid;&quot;&gt;&lt;p style=&quot;margin:0px;margin-left:8px;&quot;&gt;+ buffer: char*&lt;/p&gt;&lt;p style=&quot;margin:0px;margin-left:8px;&quot;&gt;+ size: CglVector2u16&lt;/p&gt;" style="align=left;overflow=fill;html=1;dropTarget=0;whiteSpace=wrap;fillColor=#dae8fc;strokeColor=#6c8ebf;" parent="1" vertex="1">
          <mxGeometry x="10.52" y="-430" width="180" height="70" as="geometry" />
        </mxCell>
        <mxCell id="HrfMfGlhkE7iZRvC2ZaJ-117" value="" style="shape=component;jettyWidth=8;jettyHeight=4;" parent="1" vertex="1">
          <mxGeometry x="165" y="-430" width="20" height="20" as="geometry" />
        </mxCell>
        <mxCell id="HrfMfGlhkE7iZRvC2ZaJ-118" value="CglCanvasFree" style="triangle;whiteSpace=wrap;html=1;fillColor=#ffe6cc;strokeColor=#d79b00;fontSize=12;align=left;" parent="1" vertex="1">
          <mxGeometry x="210.52" y="-430" width="100" height="40" as="geometry" />
        </mxCell>
        <mxCell id="HrfMfGlhkE7iZRvC2ZaJ-119" value="sizeof(size_t) + 4 byts" style="rounded=0;whiteSpace=wrap;html=1;fillColor=#e1d5e7;strokeColor=#9673a6;" parent="1" vertex="1">
          <mxGeometry x="210.52" y="-380" width="110" height="20" as="geometry" />
        </mxCell>
        <mxCell id="HrfMfGlhkE7iZRvC2ZaJ-130" style="edgeStyle=orthogonalEdgeStyle;rounded=0;orthogonalLoop=1;jettySize=auto;html=1;entryX=0;entryY=0.75;entryDx=0;entryDy=0;" parent="1" source="HrfMfGlhkE7iZRvC2ZaJ-120" edge="1">
          <mxGeometry relative="1" as="geometry">
            <mxPoint x="1517.52" y="-960.0000000000001" as="targetPoint" />
          </mxGeometry>
        </mxCell>
        <mxCell id="HrfMfGlhkE7iZRvC2ZaJ-120" value="CglCanvasDraw" style="triangle;whiteSpace=wrap;html=1;fillColor=#ffe6cc;strokeColor=#d79b00;fontSize=12;align=left;" parent="1" vertex="1">
          <mxGeometry x="1387.52" y="-980" width="100" height="40" as="geometry" />
        </mxCell>
        <mxCell id="HrfMfGlhkE7iZRvC2ZaJ-125" style="edgeStyle=orthogonalEdgeStyle;rounded=0;orthogonalLoop=1;jettySize=auto;html=1;entryX=0;entryY=0.5;entryDx=0;entryDy=0;" parent="1" source="HrfMfGlhkE7iZRvC2ZaJ-122" target="HrfMfGlhkE7iZRvC2ZaJ-120" edge="1">
          <mxGeometry relative="1" as="geometry" />
        </mxCell>
        <mxCell id="HrfMfGlhkE7iZRvC2ZaJ-131" style="edgeStyle=orthogonalEdgeStyle;rounded=0;orthogonalLoop=1;jettySize=auto;html=1;entryX=0;entryY=0.75;entryDx=0;entryDy=0;dashed=1;dashPattern=8 8;strokeColor=default;align=center;verticalAlign=middle;fontFamily=Helvetica;fontSize=11;fontColor=default;labelBackgroundColor=default;endArrow=classic;" parent="1" source="HrfMfGlhkE7iZRvC2ZaJ-122" edge="1">
          <mxGeometry relative="1" as="geometry">
            <mxPoint x="1517.52" y="-960.0000000000001" as="targetPoint" />
            <Array as="points">
              <mxPoint x="1497.52" y="-1045" />
              <mxPoint x="1497.52" y="-960" />
            </Array>
          </mxGeometry>
        </mxCell>
        <mxCell id="HrfMfGlhkE7iZRvC2ZaJ-122" value="&lt;div&gt;canvas: CglCanvas&lt;/div&gt;" style="shape=hexagon;perimeter=hexagonPerimeter2;whiteSpace=wrap;html=1;fixedSize=1;fillColor=#dae8fc;strokeColor=#6c8ebf;" parent="1" vertex="1">
          <mxGeometry x="1317.52" y="-1060" width="83" height="30" as="geometry" />
        </mxCell>
        <mxCell id="Igr9NYhCDzk40LcJB-6h-1" style="edgeStyle=orthogonalEdgeStyle;rounded=0;orthogonalLoop=1;jettySize=auto;html=1;exitX=1;exitY=0.5;exitDx=0;exitDy=0;entryX=0;entryY=0.5;entryDx=0;entryDy=0;" edge="1" parent="1" source="Igr9NYhCDzk40LcJB-6h-2" target="Igr9NYhCDzk40LcJB-6h-3">
          <mxGeometry relative="1" as="geometry" />
        </mxCell>
        <mxCell id="Igr9NYhCDzk40LcJB-6h-2" value="&lt;div style=&quot;padding-right: 10px; padding-left: 0px;&quot; align=&quot;left&quot;&gt;Custom output function or puts&lt;/div&gt;" style="triangle;whiteSpace=wrap;html=1;fillColor=#ffe6cc;strokeColor=#d79b00;fontSize=12;align=left;" vertex="1" parent="1">
          <mxGeometry x="610" y="-907.53" width="113.52" height="70" as="geometry" />
        </mxCell>
        <mxCell id="Igr9NYhCDzk40LcJB-6h-3" value="Console / Terminal" style="ellipse;whiteSpace=wrap;html=1;fillColor=#f8cecc;strokeColor=#b85450;" vertex="1" parent="1">
          <mxGeometry x="743.52" y="-892.53" width="70" height="40" as="geometry" />
        </mxCell>
        <mxCell id="Igr9NYhCDzk40LcJB-6h-80" style="edgeStyle=orthogonalEdgeStyle;rounded=0;orthogonalLoop=1;jettySize=auto;html=1;entryX=0;entryY=0.75;entryDx=0;entryDy=0;" edge="1" parent="1" source="Igr9NYhCDzk40LcJB-6h-5" target="Igr9NYhCDzk40LcJB-6h-57">
          <mxGeometry relative="1" as="geometry" />
        </mxCell>
        <mxCell id="Igr9NYhCDzk40LcJB-6h-5" value="CglVertices2dInitTriangle" style="triangle;whiteSpace=wrap;html=1;fillColor=#ffe6cc;strokeColor=#d79b00;fontSize=12;align=left;" vertex="1" parent="1">
          <mxGeometry x="144" y="-910" width="150" height="70" as="geometry" />
        </mxCell>
        <mxCell id="Igr9NYhCDzk40LcJB-6h-6" style="edgeStyle=orthogonalEdgeStyle;rounded=0;orthogonalLoop=1;jettySize=auto;html=1;entryX=0;entryY=0.5;entryDx=0;entryDy=0;" edge="1" parent="1" source="Igr9NYhCDzk40LcJB-6h-7" target="Igr9NYhCDzk40LcJB-6h-5">
          <mxGeometry relative="1" as="geometry" />
        </mxCell>
        <mxCell id="Igr9NYhCDzk40LcJB-6h-7" value="points: CglVector2u16" style="swimlane;fontStyle=0;childLayout=stackLayout;horizontal=1;startSize=30;horizontalStack=0;resizeParent=1;resizeParentMax=0;resizeLast=0;collapsible=1;marginBottom=0;whiteSpace=wrap;html=1;fillColor=#d5e8d4;strokeColor=#82b366;" vertex="1" parent="1">
          <mxGeometry x="14" y="-920" width="86" height="90" as="geometry" />
        </mxCell>
        <mxCell id="Igr9NYhCDzk40LcJB-6h-8" value="0, 0" style="text;strokeColor=none;fillColor=none;align=left;verticalAlign=middle;spacingLeft=4;spacingRight=4;overflow=hidden;points=[[0,0.5],[1,0.5]];portConstraint=eastwest;rotatable=0;whiteSpace=wrap;html=1;" vertex="1" parent="Igr9NYhCDzk40LcJB-6h-7">
          <mxGeometry y="30" width="86" height="20" as="geometry" />
        </mxCell>
        <mxCell id="Igr9NYhCDzk40LcJB-6h-9" value="0, 10" style="text;strokeColor=none;fillColor=none;align=left;verticalAlign=middle;spacingLeft=4;spacingRight=4;overflow=hidden;points=[[0,0.5],[1,0.5]];portConstraint=eastwest;rotatable=0;whiteSpace=wrap;html=1;" vertex="1" parent="Igr9NYhCDzk40LcJB-6h-7">
          <mxGeometry y="50" width="86" height="20" as="geometry" />
        </mxCell>
        <mxCell id="Igr9NYhCDzk40LcJB-6h-10" value="10, 0" style="text;strokeColor=none;fillColor=none;align=left;verticalAlign=middle;spacingLeft=4;spacingRight=4;overflow=hidden;points=[[0,0.5],[1,0.5]];portConstraint=eastwest;rotatable=0;whiteSpace=wrap;html=1;" vertex="1" parent="Igr9NYhCDzk40LcJB-6h-7">
          <mxGeometry y="70" width="86" height="20" as="geometry" />
        </mxCell>
        <mxCell id="Igr9NYhCDzk40LcJB-6h-11" style="edgeStyle=orthogonalEdgeStyle;rounded=0;orthogonalLoop=1;jettySize=auto;html=1;entryX=0;entryY=0.75;entryDx=0;entryDy=0;" edge="1" parent="1" source="Igr9NYhCDzk40LcJB-6h-12" target="Igr9NYhCDzk40LcJB-6h-5">
          <mxGeometry relative="1" as="geometry" />
        </mxCell>
        <mxCell id="Igr9NYhCDzk40LcJB-6h-12" value="position 10, 10: CglVector2u16" style="rounded=0;whiteSpace=wrap;html=1;fillColor=#d5e8d4;strokeColor=#82b366;" vertex="1" parent="1">
          <mxGeometry x="14" y="-820" width="86" height="35" as="geometry" />
        </mxCell>
        <mxCell id="Igr9NYhCDzk40LcJB-6h-15" style="edgeStyle=orthogonalEdgeStyle;rounded=0;orthogonalLoop=1;jettySize=auto;html=1;exitX=1;exitY=0.5;exitDx=0;exitDy=0;entryX=0;entryY=0.25;entryDx=0;entryDy=0;" edge="1" parent="1" source="Igr9NYhCDzk40LcJB-6h-17" target="Igr9NYhCDzk40LcJB-6h-5">
          <mxGeometry relative="1" as="geometry">
            <Array as="points">
              <mxPoint x="124" y="-945" />
              <mxPoint x="124" y="-892" />
            </Array>
          </mxGeometry>
        </mxCell>
        <mxCell id="Igr9NYhCDzk40LcJB-6h-17" value="triangleVertices: CglVertices2d" style="shape=hexagon;perimeter=hexagonPerimeter2;whiteSpace=wrap;html=1;fixedSize=1;fillColor=#dae8fc;strokeColor=#6c8ebf;" vertex="1" parent="1">
          <mxGeometry x="10" y="-960" width="105" height="30" as="geometry" />
        </mxCell>
        <mxCell id="Igr9NYhCDzk40LcJB-6h-69" style="edgeStyle=orthogonalEdgeStyle;rounded=0;orthogonalLoop=1;jettySize=auto;html=1;entryX=0;entryY=0.75;entryDx=0;entryDy=0;" edge="1" parent="1" source="Igr9NYhCDzk40LcJB-6h-23" target="Igr9NYhCDzk40LcJB-6h-61">
          <mxGeometry relative="1" as="geometry">
            <Array as="points">
              <mxPoint x="460.11" y="-840.03" />
              <mxPoint x="460.11" y="-862.03" />
            </Array>
          </mxGeometry>
        </mxCell>
        <mxCell id="Igr9NYhCDzk40LcJB-6h-23" value="brush &#39;#&#39;: char" style="rounded=0;whiteSpace=wrap;html=1;fillColor=#d5e8d4;strokeColor=#82b366;" vertex="1" parent="1">
          <mxGeometry x="380.11" y="-850.03" width="70" height="20" as="geometry" />
        </mxCell>
        <mxCell id="Igr9NYhCDzk40LcJB-6h-33" value="&lt;div align=&quot;center&quot;&gt;&lt;b&gt;CglChunk&lt;/b&gt;&lt;/div&gt;&lt;hr size=&quot;1&quot; style=&quot;border-style:solid;&quot;&gt;&lt;p style=&quot;margin:0px;margin-left:8px;&quot;&gt;+ charBuffer: char*&lt;br&gt;+ fColor: CglColor&lt;/p&gt;&lt;p style=&quot;margin:0px;margin-left:8px;&quot;&gt;+ gColor: CglColor&lt;/p&gt;&lt;p style=&quot;margin:0px;margin-left:8px;&quot;&gt;+ position: CglVector2u16&lt;/p&gt;&lt;p style=&quot;margin:0px;margin-left:8px;&quot;&gt;+ layer: uint8_t&lt;/p&gt;&lt;p style=&quot;margin:0px;margin-left:8px;&quot;&gt;&lt;br&gt;&lt;/p&gt;" style="align=left;overflow=fill;html=1;dropTarget=0;whiteSpace=wrap;fillColor=#dae8fc;strokeColor=#6c8ebf;" vertex="1" parent="1">
          <mxGeometry x="880" y="-560" width="180" height="110" as="geometry" />
        </mxCell>
        <mxCell id="Igr9NYhCDzk40LcJB-6h-34" value="" style="shape=component;jettyWidth=8;jettyHeight=4;" vertex="1" parent="Igr9NYhCDzk40LcJB-6h-33">
          <mxGeometry x="1" width="20" height="20" relative="1" as="geometry">
            <mxPoint x="-25" as="offset" />
          </mxGeometry>
        </mxCell>
        <mxCell id="Igr9NYhCDzk40LcJB-6h-35" value="&lt;div align=&quot;center&quot;&gt;&lt;b&gt;CglCamera2d&lt;/b&gt;&lt;/div&gt;&lt;hr size=&quot;1&quot; style=&quot;border-style:solid;&quot;&gt;&lt;p style=&quot;margin:0px;margin-left:8px;&quot;&gt;+ view: CglRectangle&lt;br&gt;&lt;/p&gt;&lt;p style=&quot;margin:0px;margin-left:8px;&quot;&gt;+ position: CglVector2u16&lt;/p&gt;&lt;p style=&quot;margin:0px;margin-left:8px;&quot;&gt;+ zoom: float&lt;/p&gt;&lt;p style=&quot;margin:0px;margin-left:8px;&quot;&gt;+ rotation: float&lt;/p&gt;" style="align=left;overflow=fill;html=1;dropTarget=0;whiteSpace=wrap;fillColor=#dae8fc;strokeColor=#6c8ebf;" vertex="1" parent="1">
          <mxGeometry x="880" y="-240" width="180" height="100" as="geometry" />
        </mxCell>
        <mxCell id="Igr9NYhCDzk40LcJB-6h-36" value="" style="shape=component;jettyWidth=8;jettyHeight=4;" vertex="1" parent="Igr9NYhCDzk40LcJB-6h-35">
          <mxGeometry x="1" width="20" height="20" relative="1" as="geometry">
            <mxPoint x="-25" as="offset" />
          </mxGeometry>
        </mxCell>
        <mxCell id="Igr9NYhCDzk40LcJB-6h-37" value="CglChunkFree" style="triangle;whiteSpace=wrap;html=1;fillColor=#ffe6cc;strokeColor=#d79b00;fontSize=12;align=left;" vertex="1" parent="1">
          <mxGeometry x="1080" y="-560" width="100" height="40" as="geometry" />
        </mxCell>
        <mxCell id="Igr9NYhCDzk40LcJB-6h-38" value="&lt;div align=&quot;center&quot;&gt;&lt;b&gt;CglVertices2d&lt;/b&gt;&lt;/div&gt;&lt;hr size=&quot;1&quot; style=&quot;border-style:solid;&quot;&gt;&lt;p style=&quot;margin:0px;margin-left:8px;&quot;&gt;+ vertices: CglVector2u16*&lt;/p&gt;&lt;p style=&quot;margin:0px;margin-left:8px;&quot;&gt;+ joinType: CglVerticesJoinType&lt;/p&gt;" style="align=left;overflow=fill;html=1;dropTarget=0;whiteSpace=wrap;fillColor=#dae8fc;strokeColor=#6c8ebf;" vertex="1" parent="1">
          <mxGeometry x="880" y="-640" width="180" height="70" as="geometry" />
        </mxCell>
        <mxCell id="Igr9NYhCDzk40LcJB-6h-39" value="" style="shape=component;jettyWidth=8;jettyHeight=4;" vertex="1" parent="Igr9NYhCDzk40LcJB-6h-38">
          <mxGeometry x="1" width="20" height="20" relative="1" as="geometry">
            <mxPoint x="-25" as="offset" />
          </mxGeometry>
        </mxCell>
        <mxCell id="Igr9NYhCDzk40LcJB-6h-40" value="CglVertices2dFree" style="triangle;whiteSpace=wrap;html=1;fillColor=#ffe6cc;strokeColor=#d79b00;fontSize=12;align=left;" vertex="1" parent="1">
          <mxGeometry x="1080" y="-640" width="112" height="40" as="geometry" />
        </mxCell>
        <mxCell id="Igr9NYhCDzk40LcJB-6h-41" value="&lt;div align=&quot;center&quot;&gt;&lt;b&gt;CglObject&lt;/b&gt;&lt;/div&gt;&lt;hr size=&quot;1&quot; style=&quot;border-style:solid;&quot;&gt;&lt;p style=&quot;margin:0px;margin-left:8px;&quot;&gt;+ chunks: CglChunk*&lt;/p&gt;&lt;p style=&quot;margin:0px;margin-left:8px;&quot;&gt;+ size: uint16_t&lt;/p&gt;" style="align=left;overflow=fill;html=1;dropTarget=0;whiteSpace=wrap;fillColor=#dae8fc;strokeColor=#6c8ebf;" vertex="1" parent="1">
          <mxGeometry x="880" y="-440" width="180" height="70" as="geometry" />
        </mxCell>
        <mxCell id="Igr9NYhCDzk40LcJB-6h-42" value="CglObjectFree" style="triangle;whiteSpace=wrap;html=1;fillColor=#ffe6cc;strokeColor=#d79b00;fontSize=12;align=left;" vertex="1" parent="1">
          <mxGeometry x="1080" y="-440" width="100" height="40" as="geometry" />
        </mxCell>
        <mxCell id="Igr9NYhCDzk40LcJB-6h-43" value="sizeof(size_t) + 1 byts" style="rounded=0;whiteSpace=wrap;html=1;fillColor=#e1d5e7;strokeColor=#9673a6;" vertex="1" parent="1">
          <mxGeometry x="1080" y="-590" width="110" height="20" as="geometry" />
        </mxCell>
        <mxCell id="Igr9NYhCDzk40LcJB-6h-44" value="sizeof(size_t) + 11 byts" style="rounded=0;whiteSpace=wrap;html=1;fillColor=#e1d5e7;strokeColor=#9673a6;" vertex="1" parent="1">
          <mxGeometry x="1080" y="-510" width="120" height="20" as="geometry" />
        </mxCell>
        <mxCell id="Igr9NYhCDzk40LcJB-6h-45" value="sizeof(size_t) + 2 byts" style="rounded=0;whiteSpace=wrap;html=1;fillColor=#e1d5e7;strokeColor=#9673a6;" vertex="1" parent="1">
          <mxGeometry x="1080" y="-390" width="110" height="20" as="geometry" />
        </mxCell>
        <mxCell id="Igr9NYhCDzk40LcJB-6h-46" value="2 * sizeof(float) + 12 byts" style="rounded=0;whiteSpace=wrap;html=1;fillColor=#e1d5e7;strokeColor=#9673a6;" vertex="1" parent="1">
          <mxGeometry x="1080" y="-250" width="130" height="20" as="geometry" />
        </mxCell>
        <mxCell id="Igr9NYhCDzk40LcJB-6h-47" value="&lt;div align=&quot;center&quot;&gt;&lt;b&gt;CglCanvas&lt;/b&gt;&lt;/div&gt;&lt;hr size=&quot;1&quot; style=&quot;border-style:solid;&quot;&gt;&lt;p style=&quot;margin:0px;margin-left:8px;&quot;&gt;+ objects: CglObject*&lt;/p&gt;&lt;p style=&quot;margin:0px;margin-left:8px;&quot;&gt;+ size: uint16_t&lt;/p&gt;" style="align=left;overflow=fill;html=1;dropTarget=0;whiteSpace=wrap;fillColor=#dae8fc;strokeColor=#6c8ebf;" vertex="1" parent="1">
          <mxGeometry x="880" y="-350" width="180" height="70" as="geometry" />
        </mxCell>
        <mxCell id="Igr9NYhCDzk40LcJB-6h-48" value="" style="shape=component;jettyWidth=8;jettyHeight=4;" vertex="1" parent="1">
          <mxGeometry x="1034.48" y="-440" width="20" height="20" as="geometry" />
        </mxCell>
        <mxCell id="Igr9NYhCDzk40LcJB-6h-49" value="" style="shape=component;jettyWidth=8;jettyHeight=4;" vertex="1" parent="1">
          <mxGeometry x="1034.48" y="-350" width="20" height="20" as="geometry" />
        </mxCell>
        <mxCell id="Igr9NYhCDzk40LcJB-6h-50" value="CglCanvasFree" style="triangle;whiteSpace=wrap;html=1;fillColor=#ffe6cc;strokeColor=#d79b00;fontSize=12;align=left;" vertex="1" parent="1">
          <mxGeometry x="1080" y="-350" width="100" height="40" as="geometry" />
        </mxCell>
        <mxCell id="Igr9NYhCDzk40LcJB-6h-51" value="sizeof(size_t) + 2 byts" style="rounded=0;whiteSpace=wrap;html=1;fillColor=#e1d5e7;strokeColor=#9673a6;" vertex="1" parent="1">
          <mxGeometry x="1080" y="-300" width="110" height="20" as="geometry" />
        </mxCell>
        <mxCell id="Igr9NYhCDzk40LcJB-6h-82" style="edgeStyle=orthogonalEdgeStyle;rounded=0;orthogonalLoop=1;jettySize=auto;html=1;entryX=0;entryY=0.5;entryDx=0;entryDy=0;" edge="1" parent="1" source="Igr9NYhCDzk40LcJB-6h-52" target="Igr9NYhCDzk40LcJB-6h-53">
          <mxGeometry relative="1" as="geometry" />
        </mxCell>
        <mxCell id="Igr9NYhCDzk40LcJB-6h-52" value="canvas: CglCanvas" style="shape=hexagon;perimeter=hexagonPerimeter2;whiteSpace=wrap;html=1;fixedSize=1;fillColor=#dae8fc;strokeColor=#6c8ebf;" vertex="1" parent="1">
          <mxGeometry x="253" y="-981" width="87" height="30" as="geometry" />
        </mxCell>
        <mxCell id="Igr9NYhCDzk40LcJB-6h-83" style="edgeStyle=orthogonalEdgeStyle;rounded=0;orthogonalLoop=1;jettySize=auto;html=1;entryX=0;entryY=0.25;entryDx=0;entryDy=0;" edge="1" parent="1" source="Igr9NYhCDzk40LcJB-6h-53" target="Igr9NYhCDzk40LcJB-6h-61">
          <mxGeometry relative="1" as="geometry">
            <Array as="points">
              <mxPoint x="460" y="-966" />
              <mxPoint x="460" y="-882" />
            </Array>
          </mxGeometry>
        </mxCell>
        <mxCell id="Igr9NYhCDzk40LcJB-6h-53" value="CglCanvasInit" style="triangle;whiteSpace=wrap;html=1;fillColor=#ffe6cc;strokeColor=#d79b00;fontSize=12;align=left;" vertex="1" parent="1">
          <mxGeometry x="360.11" y="-986" width="90" height="40" as="geometry" />
        </mxCell>
        <mxCell id="Igr9NYhCDzk40LcJB-6h-55" value="&lt;div&gt;~9,600 - ~518,400 bytes&lt;/div&gt;" style="rounded=0;whiteSpace=wrap;html=1;fillColor=#fff2cc;strokeColor=#d6b656;" vertex="1" parent="1">
          <mxGeometry x="330.52" y="-380" width="130" height="20" as="geometry" />
        </mxCell>
        <mxCell id="Igr9NYhCDzk40LcJB-6h-56" value="&amp;nbsp;" style="text;whiteSpace=wrap;html=1;" vertex="1" parent="1">
          <mxGeometry x="10" y="-1090" width="40" height="40" as="geometry" />
        </mxCell>
        <mxCell id="Igr9NYhCDzk40LcJB-6h-70" style="edgeStyle=orthogonalEdgeStyle;rounded=0;orthogonalLoop=1;jettySize=auto;html=1;exitX=1;exitY=0.5;exitDx=0;exitDy=0;entryX=0;entryY=0.5;entryDx=0;entryDy=0;" edge="1" parent="1" source="Igr9NYhCDzk40LcJB-6h-57" target="Igr9NYhCDzk40LcJB-6h-61">
          <mxGeometry relative="1" as="geometry" />
        </mxCell>
        <mxCell id="Igr9NYhCDzk40LcJB-6h-57" value="CglCamera2dNormalize" style="triangle;whiteSpace=wrap;html=1;fillColor=#ffe6cc;strokeColor=#d79b00;fontSize=12;align=left;" vertex="1" parent="1">
          <mxGeometry x="330.11" y="-900.03" width="130" height="55" as="geometry" />
        </mxCell>
        <mxCell id="Igr9NYhCDzk40LcJB-6h-114" style="edgeStyle=orthogonalEdgeStyle;rounded=0;orthogonalLoop=1;jettySize=auto;html=1;entryX=0;entryY=0.5;entryDx=0;entryDy=0;" edge="1" parent="1" source="Igr9NYhCDzk40LcJB-6h-61" target="Igr9NYhCDzk40LcJB-6h-2">
          <mxGeometry relative="1" as="geometry" />
        </mxCell>
        <mxCell id="Igr9NYhCDzk40LcJB-6h-61" value="CglCanvasFillVertices" style="triangle;whiteSpace=wrap;html=1;fillColor=#ffe6cc;strokeColor=#d79b00;fontSize=12;align=left;" vertex="1" parent="1">
          <mxGeometry x="480.11" y="-892.53" width="110" height="40" as="geometry" />
        </mxCell>
        <mxCell id="Igr9NYhCDzk40LcJB-6h-77" style="edgeStyle=orthogonalEdgeStyle;rounded=0;orthogonalLoop=1;jettySize=auto;html=1;entryX=0;entryY=0.25;entryDx=0;entryDy=0;" edge="1" parent="1" source="Igr9NYhCDzk40LcJB-6h-71" target="Igr9NYhCDzk40LcJB-6h-57">
          <mxGeometry relative="1" as="geometry" />
        </mxCell>
        <mxCell id="Igr9NYhCDzk40LcJB-6h-71" value="camera: CglCamera2d" style="shape=hexagon;perimeter=hexagonPerimeter2;whiteSpace=wrap;html=1;fixedSize=1;fillColor=#dae8fc;strokeColor=#6c8ebf;" vertex="1" parent="1">
          <mxGeometry x="179" y="-946" width="100" height="30" as="geometry" />
        </mxCell>
        <mxCell id="Igr9NYhCDzk40LcJB-6h-113" style="edgeStyle=orthogonalEdgeStyle;rounded=0;orthogonalLoop=1;jettySize=auto;html=1;entryX=0;entryY=0.75;entryDx=0;entryDy=0;" edge="1" parent="1" source="Igr9NYhCDzk40LcJB-6h-96" target="Igr9NYhCDzk40LcJB-6h-103">
          <mxGeometry relative="1" as="geometry" />
        </mxCell>
        <mxCell id="Igr9NYhCDzk40LcJB-6h-96" value="brush &#39;#&#39;: char" style="rounded=0;whiteSpace=wrap;html=1;fillColor=#d5e8d4;strokeColor=#82b366;" vertex="1" parent="1">
          <mxGeometry x="144.51999999999998" y="-580" width="70" height="20" as="geometry" />
        </mxCell>
        <mxCell id="Igr9NYhCDzk40LcJB-6h-97" style="edgeStyle=orthogonalEdgeStyle;rounded=0;orthogonalLoop=1;jettySize=auto;html=1;entryX=0;entryY=0.5;entryDx=0;entryDy=0;" edge="1" parent="1" source="Igr9NYhCDzk40LcJB-6h-98" target="Igr9NYhCDzk40LcJB-6h-100">
          <mxGeometry relative="1" as="geometry" />
        </mxCell>
        <mxCell id="Igr9NYhCDzk40LcJB-6h-98" value="canvas: CglCanvas" style="shape=hexagon;perimeter=hexagonPerimeter2;whiteSpace=wrap;html=1;fixedSize=1;fillColor=#dae8fc;strokeColor=#6c8ebf;" vertex="1" parent="1">
          <mxGeometry x="14" y="-770" width="87" height="30" as="geometry" />
        </mxCell>
        <mxCell id="Igr9NYhCDzk40LcJB-6h-112" style="edgeStyle=orthogonalEdgeStyle;rounded=0;orthogonalLoop=1;jettySize=auto;html=1;entryX=0;entryY=0.25;entryDx=0;entryDy=0;" edge="1" parent="1" source="Igr9NYhCDzk40LcJB-6h-100" target="Igr9NYhCDzk40LcJB-6h-103">
          <mxGeometry relative="1" as="geometry" />
        </mxCell>
        <mxCell id="Igr9NYhCDzk40LcJB-6h-100" value="CglCanvasInit" style="triangle;whiteSpace=wrap;html=1;fillColor=#ffe6cc;strokeColor=#d79b00;fontSize=12;align=left;" vertex="1" parent="1">
          <mxGeometry x="124.52000000000004" y="-775" width="90" height="40" as="geometry" />
        </mxCell>
        <mxCell id="Igr9NYhCDzk40LcJB-6h-118" style="edgeStyle=orthogonalEdgeStyle;rounded=0;orthogonalLoop=1;jettySize=auto;html=1;entryX=0;entryY=0.5;entryDx=0;entryDy=0;" edge="1" parent="1" source="Igr9NYhCDzk40LcJB-6h-103" target="Igr9NYhCDzk40LcJB-6h-116">
          <mxGeometry relative="1" as="geometry" />
        </mxCell>
        <mxCell id="Igr9NYhCDzk40LcJB-6h-103" value="CglCanvasFillTriangle" style="triangle;whiteSpace=wrap;html=1;fillColor=#ffe6cc;strokeColor=#d79b00;fontSize=12;align=left;" vertex="1" parent="1">
          <mxGeometry x="260" y="-708.75" width="126" height="47.5" as="geometry" />
        </mxCell>
        <mxCell id="Igr9NYhCDzk40LcJB-6h-106" value="points: CglVector2u16" style="swimlane;fontStyle=0;childLayout=stackLayout;horizontal=1;startSize=30;horizontalStack=0;resizeParent=1;resizeParentMax=0;resizeLast=0;collapsible=1;marginBottom=0;whiteSpace=wrap;html=1;fillColor=#d5e8d4;strokeColor=#82b366;" vertex="1" parent="1">
          <mxGeometry x="128.51999999999998" y="-725" width="86" height="90" as="geometry" />
        </mxCell>
        <mxCell id="Igr9NYhCDzk40LcJB-6h-107" value="0, 0" style="text;strokeColor=none;fillColor=none;align=left;verticalAlign=middle;spacingLeft=4;spacingRight=4;overflow=hidden;points=[[0,0.5],[1,0.5]];portConstraint=eastwest;rotatable=0;whiteSpace=wrap;html=1;" vertex="1" parent="Igr9NYhCDzk40LcJB-6h-106">
          <mxGeometry y="30" width="86" height="20" as="geometry" />
        </mxCell>
        <mxCell id="Igr9NYhCDzk40LcJB-6h-108" value="0, 10" style="text;strokeColor=none;fillColor=none;align=left;verticalAlign=middle;spacingLeft=4;spacingRight=4;overflow=hidden;points=[[0,0.5],[1,0.5]];portConstraint=eastwest;rotatable=0;whiteSpace=wrap;html=1;" vertex="1" parent="Igr9NYhCDzk40LcJB-6h-106">
          <mxGeometry y="50" width="86" height="20" as="geometry" />
        </mxCell>
        <mxCell id="Igr9NYhCDzk40LcJB-6h-109" value="10, 0" style="text;strokeColor=none;fillColor=none;align=left;verticalAlign=middle;spacingLeft=4;spacingRight=4;overflow=hidden;points=[[0,0.5],[1,0.5]];portConstraint=eastwest;rotatable=0;whiteSpace=wrap;html=1;" vertex="1" parent="Igr9NYhCDzk40LcJB-6h-106">
          <mxGeometry y="70" width="86" height="20" as="geometry" />
        </mxCell>
        <mxCell id="Igr9NYhCDzk40LcJB-6h-110" value="position 10, 10: CglVector2u16" style="rounded=0;whiteSpace=wrap;html=1;fillColor=#d5e8d4;strokeColor=#82b366;" vertex="1" parent="1">
          <mxGeometry x="128.51999999999998" y="-625" width="86" height="35" as="geometry" />
        </mxCell>
        <mxCell id="Igr9NYhCDzk40LcJB-6h-111" style="edgeStyle=orthogonalEdgeStyle;rounded=0;orthogonalLoop=1;jettySize=auto;html=1;entryX=0;entryY=0.5;entryDx=0;entryDy=0;" edge="1" parent="1" source="Igr9NYhCDzk40LcJB-6h-107" target="Igr9NYhCDzk40LcJB-6h-103">
          <mxGeometry relative="1" as="geometry" />
        </mxCell>
        <mxCell id="Igr9NYhCDzk40LcJB-6h-115" style="edgeStyle=orthogonalEdgeStyle;rounded=0;orthogonalLoop=1;jettySize=auto;html=1;exitX=1;exitY=0.5;exitDx=0;exitDy=0;entryX=0;entryY=0.5;entryDx=0;entryDy=0;" edge="1" parent="1" source="Igr9NYhCDzk40LcJB-6h-116" target="Igr9NYhCDzk40LcJB-6h-117">
          <mxGeometry relative="1" as="geometry" />
        </mxCell>
        <mxCell id="Igr9NYhCDzk40LcJB-6h-116" value="&lt;div style=&quot;padding-right: 10px; padding-left: 0px;&quot; align=&quot;left&quot;&gt;Custom output function or puts&lt;/div&gt;" style="triangle;whiteSpace=wrap;html=1;fillColor=#ffe6cc;strokeColor=#d79b00;fontSize=12;align=left;" vertex="1" parent="1">
          <mxGeometry x="410" y="-720" width="113.52" height="70" as="geometry" />
        </mxCell>
        <mxCell id="Igr9NYhCDzk40LcJB-6h-117" value="Console / Terminal" style="ellipse;whiteSpace=wrap;html=1;fillColor=#f8cecc;strokeColor=#b85450;" vertex="1" parent="1">
          <mxGeometry x="543.52" y="-705" width="70" height="40" as="geometry" />
        </mxCell>
      </root>
    </mxGraphModel>
  </diagram>
</mxfile>
